<svg xmlns="http://www.w3.org/2000/svg" width="256" height="256" viewBox="0 0 256 256" fill="none" id="my-svg">
  <defs>
    <linearGradient id="gradient1">
      <stop class="stop1" offset="0%" stop-color="#8f66ff"></stop>
      <stop class="stop2" offset="100%" stop-color="#3d12ff"></stop>
    </linearGradient>
  </defs>
  <rect id="backgr" width="256" height="256" fill="none" rx="70"></rect>
  <g id="group" transform="translate(0,0) scale(1)">
    <path d="M128.000 128.000L96.000 106.667M128.000 149.333L170.667 128.000" stroke="#ff00ff" stroke-width="10" stroke-linecap="round" stroke-linejoin="round" id="secondary"></path>
    <path d="M128.000 96.000V128.000V149.333V224.000M191.621 78.941C188.462 52.499 165.958 32.000 138.667 32.000C121.218 32.000 105.726 40.379 95.996 53.333C60.652 53.335 32.000 81.988 32.000 117.333C32.000 152.679 60.654 181.333 96.000 181.333H170.667C200.122 181.333 224.000 157.455 224.000 128.000C224.000 105.983 210.659 87.083 191.621 78.941Z" stroke="#1616dd" stroke-width="10" stroke-linecap="round" stroke-linejoin="round" id="primary"></path>
  </g>
</svg>