<svg xmlns="http://www.w3.org/2000/svg" width="256" height="256" viewBox="0 0 256 256" fill="none" id="my-svg">
  <defs>
    <linearGradient id="gradient1">
      <stop class="stop1" offset="0%" stop-color="#8f66ff"></stop>
      <stop class="stop2" offset="100%" stop-color="#3d12ff"></stop>
    </linearGradient>
  </defs>
  <rect id="backgr" width="256" height="256" fill="none" rx="70"></rect>
  <g id="group" transform="translate(0,0) scale(1)">
    <path d="M181.333 32.000H74.667C51.103 32.000 32.000 51.103 32.000 74.667V181.333C32.000 204.897 51.103 224.000 74.667 224.000H181.333C204.897 224.000 224.000 204.897 224.000 181.333V74.667C224.000 51.103 204.897 32.000 181.333 32.000Z" stroke="#1616dd" stroke-width="5" stroke-linecap="round" stroke-linejoin="round" id="primary"></path>
    <path d="M160.000 128.000C160.000 145.674 145.674 160.000 128.000 160.000C110.326 160.000 96.000 145.674 96.000 128.000C96.000 110.326 110.326 96.000 128.000 96.000C145.674 96.000 160.000 110.326 160.000 128.000Z" stroke="#ff00ff" stroke-width="5" stroke-linecap="round" stroke-linejoin="round" id="secondary"></path>
    <path d="M192.000 74.667C192.000 80.558 187.225 85.333 181.333 85.333C175.442 85.333 170.667 80.558 170.667 74.667C170.667 68.776 175.442 64.000 181.333 64.000C187.225 64.000 192.000 68.776 192.000 74.667Z" stroke="#ff00ff" stroke-width="5" stroke-linecap="round" stroke-linejoin="round" id="secondary"></path>
  </g>
</svg>