<svg width="24" xmlns="http://www.w3.org/2000/svg" height="24" id="screenshot-1470db45-f242-8014-8008-7a0aebaafab7" viewBox="0 0 24 24" xmlns:xlink="http://www.w3.org/1999/xlink" fill="none" version="1.1"><g id="shape-1470db45-f242-8014-8008-7a0aebaafab7"><g class="frame-container-wrapper"><g class="frame-container-blur"><g class="frame-container-shadows"><g fill="none"><g class="fills" id="fills-1470db45-f242-8014-8008-7a0aebaafab7"><rect rx="0" ry="0" x="0" y="0" width="24" height="24" transform="matrix(1.000000, 0.000000, 0.000000, 1.000000, 0.000000, 0.000000)" class="frame-background"/></g><g class="frame-children"><g id="shape-1470db45-f242-8014-8008-7a06228f20de" width="256" height="256" rx="0" ry="0" style="fill: rgb(0, 0, 0);"><g id="shape-1470db45-f242-8014-8008-7a062295d7e3"><g class="fills" id="fills-1470db45-f242-8014-8008-7a062295d7e3"><rect width="24" height="24" x="0" transform="matrix(1.000000, 0.000000, 0.000000, 1.000000, 0.000000, 0.000000)" style="fill: none;" ry="0" fill="none" rx="0" y="0"/></g></g><g id="shape-1470db45-f242-8014-8008-7a0622964c9d" rx="0" ry="0" style="fill: rgb(0, 0, 0);"><g id="shape-1470db45-f242-8014-8008-7a062296f583"><g class="fills" id="fills-1470db45-f242-8014-8008-7a062296f583"><path d="M12,15L12,13L13,11M12,13L9,11M13,11L11,7M13,11L15,9M11,7L14,3M11,7L9,5" fill="none" stroke-linecap="round" stroke-linejoin="round" style="fill: none;"/></g><g fill="none" stroke-linecap="round" stroke-linejoin="round" id="strokes-81272596-5826-8012-8008-7f4fe4c3c265-1470db45-f242-8014-8008-7a062296f583" class="strokes"><g class="stroke-shape"><path d="M12,15L12,13L13,11M12,13L9,11M13,11L11,7M13,11L15,9M11,7L14,3M11,7L9,5" style="fill: none; stroke-width: 1; stroke: rgb(189, 118, 255); stroke-opacity: 1; stroke-linecap: round;"/></g></g></g><g id="shape-1470db45-f242-8014-8008-7a062296f584"><g class="fills" id="fills-1470db45-f242-8014-8008-7a062296f584"><path d="M17,20.00006103515625C17,17.2386474609375,14.761474609375,15.0001220703125,12,15.0001220703125C9.2386474609375,15.0001220703125,7,17.2386474609375,7,20.00006103515625M3,20.00006103515625L21,20.00006103515625M8.4644775390625,16.4644775390625L6,14L6,10L4,7M6,14L3,13.0001220703125M15.53564453125,16.46453857421875L18.0001220703125,14.00006103515625L18.0001220703125,10.0001220703125L20,7.0001220703125M18.0001220703125,14.00006103515625L21.0001220703125,13.000244140625" fill="none" stroke-linecap="round" stroke-linejoin="round" style="fill: rgb(189, 118, 255); fill-opacity: 1;"/></g><g fill="none" stroke-linecap="round" stroke-linejoin="round" id="strokes-81272596-5826-8012-8008-7f4fe4c4f388-1470db45-f242-8014-8008-7a062296f584" class="strokes"><g class="stroke-shape"><path d="M17,20.00006103515625C17,17.2386474609375,14.761474609375,15.0001220703125,12,15.0001220703125C9.2386474609375,15.0001220703125,7,17.2386474609375,7,20.00006103515625M3,20.00006103515625L21,20.00006103515625M8.4644775390625,16.4644775390625L6,14L6,10L4,7M6,14L3,13.0001220703125M15.53564453125,16.46453857421875L18.0001220703125,14.00006103515625L18.0001220703125,10.0001220703125L20,7.0001220703125M18.0001220703125,14.00006103515625L21.0001220703125,13.000244140625" style="fill: none; stroke-width: 1; stroke: rgb(189, 118, 255); stroke-opacity: 1; stroke-linecap: round;"/></g></g></g></g></g></g></g></g></g></g></g></svg>