<svg width="24" xmlns="http://www.w3.org/2000/svg" height="24" id="screenshot-6e239db3-1a1f-80d7-8008-7f50fe98ce11" viewBox="0 0 24 24" xmlns:xlink="http://www.w3.org/1999/xlink" fill="none" version="1.1"><g id="shape-6e239db3-1a1f-80d7-8008-7f50fe98ce11"><g class="frame-container-wrapper"><g class="frame-container-blur"><g class="frame-container-shadows"><g fill="none"><g class="fills" id="fills-6e239db3-1a1f-80d7-8008-7f50fe98ce11"><rect rx="0" ry="0" x="0" y="0" width="24" height="24" transform="matrix(1.000000, 0.000000, 0.000000, 1.000000, 0.000000, 0.000000)" class="frame-background"/></g><g class="frame-children"><g id="shape-6e239db3-1a1f-80d7-8008-7f4a0f478e25" width="256" height="256" rx="0" ry="0" style="fill: rgb(0, 0, 0);"><g id="shape-6e239db3-1a1f-80d7-8008-7f4a0f4a1bfc" style="display: none;"><g class="fills" id="fills-6e239db3-1a1f-80d7-8008-7f4a0f4a1bfc"><rect width="24" height="24" x="0" transform="matrix(1.000000, 0.000000, 0.000000, 1.000000, 0.000000, 0.000000)" style="fill: none;" ry="0" fill="none" rx="0" y="0"/></g></g><g id="shape-6e239db3-1a1f-80d7-8008-7f4a0f4a8fb1"><g class="fills" id="fills-6e239db3-1a1f-80d7-8008-7f4a0f4a8fb1"><path d="M6,14L13,3L13,10L18,10L11,21L11,14L6,14L6,14" fill="none" stroke-linecap="round" stroke-linejoin="round" style="fill: rgb(255, 113, 61); fill-opacity: 1;"/></g><g fill="none" stroke-linecap="round" stroke-linejoin="round" id="strokes-4268031f-ef4b-8082-8008-7f521a60e3c3-6e239db3-1a1f-80d7-8008-7f4a0f4a8fb1" class="strokes"><g class="inner-stroke-shape"><defs><clipPath id="inner-stroke-render-4-6e239db3-1a1f-80d7-8008-7f4a0f4a8fb1-0"><use href="#stroke-shape-render-4-6e239db3-1a1f-80d7-8008-7f4a0f4a8fb1-0"/></clipPath><path d="M6,14L13,3L13,10L18,10L11,21L11,14L6,14L6,14" id="stroke-shape-render-4-6e239db3-1a1f-80d7-8008-7f4a0f4a8fb1-0" style="fill: none; stroke-width: 2; stroke: rgb(255, 113, 61); stroke-opacity: 1;"/></defs><use href="#stroke-shape-render-4-6e239db3-1a1f-80d7-8008-7f4a0f4a8fb1-0" clip-path="url('#inner-stroke-render-4-6e239db3-1a1f-80d7-8008-7f4a0f4a8fb1-0')"/></g></g></g></g></g></g></g></g></g></g></svg>