<?xml version="1.0" encoding="UTF-8" standalone="no"?>
<!DOCTYPE svg PUBLIC "-//W3C//DTD SVG 1.1//EN" "http://www.w3.org/Graphics/SVG/1.1/DTD/svg11.dtd">
<svg fill="currentColor" width="100%" height="100%" viewBox="0 0 827 827" version="1.1" xmlns="http://www.w3.org/2000/svg" xmlns:xlink="http://www.w3.org/1999/xlink" xml:space="preserve" xmlns:serif="http://www.serif.com/" style="fill-rule:evenodd;clip-rule:evenodd;stroke-linejoin:round;stroke-miterlimit:2;">
    <g transform="matrix(1,0,0,1,-4248,-3186)">
        <g id="TPT_Codex-T" transform="matrix(1,0,0,1,0,-0.992126)">
            <rect x="4248" y="3186.992" width="826.772" height="826.772" style="fill:none;"/>
            <g transform="matrix(1,0,0,1,4129.889764,2714.551181)">
                <rect x="472.441" y="590.551" width="118.11" height="354.331"/>
            </g>
            <g transform="matrix(1,0,0,1,3893.669291,2833.383202)">
                <rect x="826.772" y="354.331" width="118.11" height="118.11"/>
                <g transform="matrix(1,0,0,1,118.110236,118.110236)">
                    <rect x="826.772" y="354.331" width="118.11" height="118.11"/>
                </g>
            </g>
            <g transform="matrix(1,0,0,-1,3539.338583,3779.878604)">
                <rect x="826.772" y="354.331" width="118.11" height="118.11"/>
                <g transform="matrix(1,0,0,1,118.110236,118.110236)">
                    <rect x="826.772" y="354.331" width="118.11" height="118.11"/>
                </g>
            </g>
            <g transform="matrix(1,0,0,1,4248,3068.88189)">
                <rect x="472.441" y="590.551" width="118.11" height="354.331"/>
            </g>
        </g>
    </g>
</svg>
