<?xml version="1.0" encoding="UTF-8" standalone="no"?>
<!DOCTYPE svg PUBLIC "-//W3C//DTD SVG 1.1//EN" "http://www.w3.org/Graphics/SVG/1.1/DTD/svg11.dtd">
<svg fill="currentColor" width="100%" height="100%" viewBox="0 0 827 827" version="1.1" xmlns="http://www.w3.org/2000/svg" xmlns:xlink="http://www.w3.org/1999/xlink" xml:space="preserve" xmlns:serif="http://www.serif.com/" style="fill-rule:evenodd;clip-rule:evenodd;stroke-linejoin:round;stroke-miterlimit:2;">
    <g transform="matrix(1,0,0,1,0,-4248)">
        <g id="TPT_Codex-U" transform="matrix(1,0,0,1,0,-0.992126)">
            <rect x="0" y="4248.992" width="826.772" height="826.772" style="fill:none;"/>
            <g transform="matrix(-0,-1,-1,0,885.104987,5489.149606)">
                <path d="M649.606,530.774L649.606,648.885C519.631,648.885 414.108,543.361 414.108,413.386C414.108,283.411 519.631,176.444 649.606,176.444L649.606,294.554C584.021,294.554 530.774,347.801 530.774,413.386C530.774,478.971 584.021,530.774 649.606,530.774Z"/>
            </g>
            <g transform="matrix(1,0,0,1,-354.330709,3776.551181)">
                <rect x="472.441" y="590.551" width="118.11" height="354.331"/>
            </g>
            <g transform="matrix(1,0,0,1,0,3776.551181)">
                <rect x="472.441" y="590.551" width="118.11" height="354.331"/>
            </g>
        </g>
    </g>
</svg>
