<svg xmlns="http://www.w3.org/2000/svg" style="display:none">
  <symbol id="accueillir-une-stagiaire-bold" viewBox="0 0 256 256" fill="none">
    <defs>
    <linearGradient id="accueillir-une-stagiaire-bold-gradient1">
      <stop class="stop1" offset="0%" stop-color="#8f66ff"></stop>
      <stop class="stop2" offset="100%" stop-color="#3d12ff"></stop>
    </linearGradient>
  </defs>
  <rect id="accueillir-une-stagiaire-bold-backgr" width="256" height="256" fill="none" rx="70"></rect>
  <g id="accueillir-une-stagiaire-bold-group" transform="translate(0,0) scale(1)">
    <path d="M64.000 85.333H69.333M96.000 85.333H101.333M128.000 85.333H133.333" stroke="#ff00ff" stroke-width="10" stroke-linecap="round" stroke-linejoin="round" id="accueillir-une-stagiaire-bold-secondary"></path>
    <path d="M202.667 53.333H53.333C41.551 53.333 32.000 62.885 32.000 74.667V181.333C32.000 193.116 41.551 202.667 53.333 202.667H202.667C214.449 202.667 224.000 193.116 224.000 181.333V74.667C224.000 62.885 214.449 53.333 202.667 53.333Z" stroke="#1616dd" stroke-width="10" stroke-linecap="round" stroke-linejoin="round" id="accueillir-une-stagiaire-bold-primary"></path>
  </g>
  </symbol>
  <symbol id="accueillir-une-stagiaire-light" viewBox="0 0 256 256" fill="none">
    <defs>
    <linearGradient id="accueillir-une-stagiaire-light-gradient1">
      <stop class="stop1" offset="0%" stop-color="#8f66ff"></stop>
      <stop class="stop2" offset="100%" stop-color="#3d12ff"></stop>
    </linearGradient>
  </defs>
  <rect id="accueillir-une-stagiaire-light-backgr" width="256" height="256" fill="none" rx="17"></rect>
  <g id="accueillir-une-stagiaire-light-group" transform="translate(0,0) scale(1)">
    <path d="M64.000 85.333H69.333M96.000 85.333H101.333M128.000 85.333H133.333" stroke="#ff00ff" stroke-width="5" stroke-linecap="round" stroke-linejoin="round" id="accueillir-une-stagiaire-light-secondary"></path>
    <path d="M202.667 53.333H53.333C41.551 53.333 32.000 62.885 32.000 74.667V181.333C32.000 193.116 41.551 202.667 53.333 202.667H202.667C214.449 202.667 224.000 193.116 224.000 181.333V74.667C224.000 62.885 214.449 53.333 202.667 53.333Z" stroke="#1616dd" stroke-width="5" stroke-linecap="round" stroke-linejoin="round" id="accueillir-une-stagiaire-light-primary"></path>
  </g>
  </symbol>
  <symbol id="connexion-bold" viewBox="0 0 256 256" fill="none">
    <defs>
    <linearGradient id="connexion-bold-gradient1">
      <stop class="stop1" offset="0%" stop-color="#8f66ff"></stop>
      <stop class="stop2" offset="100%" stop-color="#3d12ff"></stop>
    </linearGradient>
  </defs>
  <rect id="connexion-bold-backgr" width="256" height="256" fill="none" rx="70"></rect>
  <g id="connexion-bold-group" transform="translate(0,0) scale(1)">
    <path d="M138.667 213.333H181.333C193.116 213.333 202.667 203.782 202.667 192.000V64.000C202.667 52.218 193.116 42.667 181.333 42.667H138.667" stroke="#1616dd" stroke-width="10" stroke-linecap="round" stroke-linejoin="round" id="connexion-bold-primary"></path>
    <path d="M64.000 128.000H160.000M160.000 128.000L128.000 96.000M160.000 128.000L128.000 160.000" stroke="#ff00ff" stroke-width="10" stroke-linecap="round" stroke-linejoin="round" id="connexion-bold-secondary"></path>
  </g>
  </symbol>
  <symbol id="connexion-light" viewBox="0 0 256 256" fill="none">
    <defs>
    <linearGradient id="connexion-light-gradient1">
      <stop class="stop1" offset="0%" stop-color="#8f66ff"></stop>
      <stop class="stop2" offset="100%" stop-color="#3d12ff"></stop>
    </linearGradient>
  </defs>
  <rect id="connexion-light-backgr" width="256" height="256" fill="none" rx="70"></rect>
  <g id="connexion-light-group" transform="translate(0,0) scale(1)">
    <path d="M138.667 213.333H181.333C193.116 213.333 202.667 203.782 202.667 192.000V64.000C202.667 52.218 193.116 42.667 181.333 42.667H138.667" stroke="#1616dd" stroke-width="5" stroke-linecap="round" stroke-linejoin="round" id="connexion-light-primary"></path>
    <path d="M64.000 128.000H160.000M160.000 128.000L128.000 96.000M160.000 128.000L128.000 160.000" stroke="#ff00ff" stroke-width="5" stroke-linecap="round" stroke-linejoin="round" id="connexion-light-secondary"></path>
  </g>
  </symbol>
  <symbol id="deconnexion-bold" viewBox="0 0 256 256" fill="none">
    <defs>
    <linearGradient id="deconnexion-bold-gradient1">
      <stop class="stop1" offset="0%" stop-color="#8f66ff"></stop>
      <stop class="stop2" offset="100%" stop-color="#3d12ff"></stop>
    </linearGradient>
  </defs>
  <rect id="deconnexion-bold-backgr" width="256" height="256" fill="none" rx="70"></rect>
  <g id="deconnexion-bold-group" transform="translate(0,0) scale(1)">
    <path d="M128.000 42.667H85.333C73.551 42.667 64.000 52.218 64.000 64.000L64.000 192.000C64.000 203.782 73.551 213.333 85.333 213.333H128.000" stroke="#1616dd" stroke-width="10" stroke-linecap="round" stroke-linejoin="round" id="deconnexion-bold-primary"></path>
    <path d="M202.667 128.000H106.667M202.667 128.000L170.667 96.000M202.667 128.000L170.667 160.000" stroke="#ff00ff" stroke-width="10" stroke-linecap="round" stroke-linejoin="round" id="deconnexion-bold-secondary"></path>
  </g>
  </symbol>
  <symbol id="deconnexion-light" viewBox="0 0 256 256" fill="none">
    <defs>
    <linearGradient id="deconnexion-light-gradient1">
      <stop class="stop1" offset="0%" stop-color="#8f66ff"></stop>
      <stop class="stop2" offset="100%" stop-color="#3d12ff"></stop>
    </linearGradient>
  </defs>
  <rect id="deconnexion-light-backgr" width="256" height="256" fill="none" rx="70"></rect>
  <g id="deconnexion-light-group" transform="translate(0,0) scale(1)">
    <path d="M128.000 42.667H85.333C73.551 42.667 64.000 52.218 64.000 64.000L64.000 192.000C64.000 203.782 73.551 213.333 85.333 213.333H128.000" stroke="#1616dd" stroke-width="5" stroke-linecap="round" stroke-linejoin="round" id="deconnexion-light-primary"></path>
    <path d="M202.667 128.000H106.667M202.667 128.000L170.667 96.000M202.667 128.000L170.667 160.000" stroke="#ff00ff" stroke-width="5" stroke-linecap="round" stroke-linejoin="round" id="deconnexion-light-secondary"></path>
  </g>
  </symbol>
  <symbol id="intervenir-dans-un-atelier-bold" viewBox="0 0 256 256" fill="none">
    <defs>
    <linearGradient id="intervenir-dans-un-atelier-bold-gradient1">
      <stop class="stop1" offset="0%" stop-color="#8f66ff"></stop>
      <stop class="stop2" offset="100%" stop-color="#3d12ff"></stop>
    </linearGradient>
  </defs>
  <rect id="intervenir-dans-un-atelier-bold-backgr" width="256" height="256" fill="none" rx="70"></rect>
  <g id="intervenir-dans-un-atelier-bold-group" transform="translate(0,0) scale(1)">
    <path d="M32.000 82.589C55.280 58.114 92.858 42.667 127.999 42.667C163.139 42.667 200.720 58.114 224.000 82.590M53.333 115.831C72.572 96.966 98.928 85.333 128.000 85.333C157.072 85.333 183.428 96.966 202.667 115.831M74.667 149.139C89.185 135.914 105.250 128.000 128.001 128.000C150.751 128.000 166.816 135.914 181.333 149.139" stroke="#ff00ff" stroke-width="10" stroke-linecap="round" stroke-linejoin="round" id="intervenir-dans-un-atelier-bold-secondary"></path>
    <path d="M149.333 192.000C149.333 203.782 139.782 213.333 128.000 213.333C116.218 213.333 106.667 203.782 106.667 192.000C106.667 180.218 116.218 170.667 128.000 170.667C139.782 170.667 149.333 180.218 149.333 192.000Z" stroke="#1616dd" stroke-width="10" stroke-linecap="round" stroke-linejoin="round" id="intervenir-dans-un-atelier-bold-primary"></path>
  </g>
  </symbol>
  <symbol id="mentorer-bold" viewBox="0 0 256 256" fill="none">
    <defs>
    <linearGradient id="mentorer-bold-gradient1">
      <stop class="stop1" offset="0%" stop-color="#8f66ff"></stop>
      <stop class="stop2" offset="100%" stop-color="#3d12ff"></stop>
    </linearGradient>
  </defs>
  <rect id="mentorer-bold-backgr" width="256" height="256" fill="none" rx="70"></rect>
  <g id="mentorer-bold-group" transform="translate(0,0) scale(1)">
    <path d="M53.333 192.000H95.995M95.995 192.000H160.005M95.995 192.000C83.044 182.270 74.667 166.780 74.667 149.333C74.667 119.878 98.545 96.000 128.000 96.000C157.455 96.000 181.333 119.878 181.333 149.333C181.333 166.780 172.957 182.270 160.005 192.000M160.005 192.000H202.667" stroke="#1616dd" stroke-width="10" stroke-linecap="round" stroke-linejoin="round" id="mentorer-bold-primary"></path>
    <path d="M128.000 64.000L128.000 53.333M213.333 149.333H224.000M32.000 149.333H42.667M188.338 88.993L195.881 81.451M60.117 81.451L67.660 88.994" stroke="#ff00ff" stroke-width="10" stroke-linecap="round" stroke-linejoin="round" id="mentorer-bold-secondary"></path>
  </g>
  </symbol>
  <symbol id="mentorer-light" viewBox="0 0 256 256" fill="none">
    <defs>
    <linearGradient id="mentorer-light-gradient1">
      <stop class="stop1" offset="0%" stop-color="#8f66ff"></stop>
      <stop class="stop2" offset="100%" stop-color="#3d12ff"></stop>
    </linearGradient>
  </defs>
  <rect id="mentorer-light-backgr" width="256" height="256" fill="none" rx="70"></rect>
  <g id="mentorer-light-group" transform="translate(0,0) scale(1)">
    <path d="M53.333 192.000H95.995M95.995 192.000H160.005M95.995 192.000C83.044 182.270 74.667 166.780 74.667 149.333C74.667 119.878 98.545 96.000 128.000 96.000C157.455 96.000 181.333 119.878 181.333 149.333C181.333 166.780 172.957 182.270 160.005 192.000M160.005 192.000H202.667" stroke="#1616dd" stroke-width="5" stroke-linecap="round" stroke-linejoin="round" id="mentorer-light-primary"></path>
    <path d="M128.000 64.000L128.000 53.333M213.333 149.333H224.000M32.000 149.333H42.667M188.338 88.993L195.881 81.451M60.117 81.451L67.660 88.994" stroke="#ff00ff" stroke-width="5" stroke-linecap="round" stroke-linejoin="round" id="mentorer-light-secondary"></path>
  </g>
  </symbol>
  <symbol id="menu-burger-light" viewBox="0 0 256 256" fill="none">
    <defs>
    <linearGradient id="menu-burger-light-gradient1">
      <stop class="stop1" offset="0%" stop-color="#8f66ff"></stop>
      <stop class="stop2" offset="100%" stop-color="#3d12ff"></stop>
    </linearGradient>
  </defs>
  <rect id="menu-burger-light-backgr" width="256" height="256" fill="none" rx="70"></rect>
  <g id="menu-burger-light-group" transform="translate(0,0) scale(1)">
    <path d="M64.000 74.667H192.000M64.000 181.333H192.000" stroke="#1616dd" stroke-width="5" stroke-linecap="round" stroke-linejoin="round" id="menu-burger-light-primary"></path>
    <path d="M64.000 128.000H192.000" stroke="#1616dd" stroke-width="5" stroke-linecap="round" stroke-linejoin="round" id="menu-burger-light-secondary"></path>
  </g>
  </symbol>
  <symbol id="mobiliser-autour-de-moi-bold" viewBox="0 0 256 256" fill="none">
    <defs>
    <linearGradient id="mobiliser-autour-de-moi-bold-gradient1">
      <stop class="stop1" offset="0%" stop-color="#8f66ff"></stop>
      <stop class="stop2" offset="100%" stop-color="#3d12ff"></stop>
    </linearGradient>
  </defs>
  <rect id="mobiliser-autour-de-moi-bold-backgr" width="256" height="256" fill="none" rx="70"></rect>
  <g id="mobiliser-autour-de-moi-bold-group" transform="translate(0,0) scale(1)">
    <path d="M117.333 96.000V128.000M138.667 160.000V181.333M202.667 106.667V117.333M53.333 106.667V117.333M202.667 74.667V58.667C202.667 43.939 190.727 32.000 176.000 32.000C161.273 32.000 149.333 43.939 149.333 58.667V64.000M53.333 74.667V58.667C53.333 43.939 65.272 32.000 80.000 32.000C94.728 32.000 106.667 43.939 106.667 58.667V64.000" stroke="#ff00ff" stroke-width="10" stroke-linecap="round" stroke-linejoin="round" id="mobiliser-autour-de-moi-bold-secondary"></path>
    <path d="M85.333 96.000H170.667C170.667 96.000 170.882 143.129 181.333 170.667C191.991 198.751 224.000 224.000 224.000 224.000H32.000C32.000 224.000 64.008 198.751 74.667 170.667C85.118 143.129 85.333 96.000 85.333 96.000Z" stroke="#1616dd" stroke-width="10" stroke-linecap="round" stroke-linejoin="round" id="mobiliser-autour-de-moi-bold-primary"></path>
  </g>
  </symbol>
  <symbol id="mobiliser-autour-de-moi-light" viewBox="0 0 256 256" fill="none">
    <defs>
    <linearGradient id="mobiliser-autour-de-moi-light-gradient1">
      <stop class="stop1" offset="0%" stop-color="#8f66ff"></stop>
      <stop class="stop2" offset="100%" stop-color="#3d12ff"></stop>
    </linearGradient>
  </defs>
  <rect id="mobiliser-autour-de-moi-light-backgr" width="256" height="256" fill="none" rx="70"></rect>
  <g id="mobiliser-autour-de-moi-light-group" transform="translate(0,0) scale(1)">
    <path d="M117.333 96.000V128.000M138.667 160.000V181.333M202.667 106.667V117.333M53.333 106.667V117.333M202.667 74.667V58.667C202.667 43.939 190.727 32.000 176.000 32.000C161.273 32.000 149.333 43.939 149.333 58.667V64.000M53.333 74.667V58.667C53.333 43.939 65.272 32.000 80.000 32.000C94.728 32.000 106.667 43.939 106.667 58.667V64.000" stroke="#ff00ff" stroke-width="5" stroke-linecap="round" stroke-linejoin="round" id="mobiliser-autour-de-moi-light-secondary"></path>
    <path d="M85.333 96.000H170.667C170.667 96.000 170.882 143.129 181.333 170.667C191.991 198.751 224.000 224.000 224.000 224.000H32.000C32.000 224.000 64.008 198.751 74.667 170.667C85.118 143.129 85.333 96.000 85.333 96.000Z" stroke="#1616dd" stroke-width="5" stroke-linecap="round" stroke-linejoin="round" id="mobiliser-autour-de-moi-light-primary"></path>
  </g>
  </symbol>
  <symbol id="moins-light" viewBox="0 0 256 256" fill="none">
    <defs>
    <linearGradient id="moins-light-gradient1">
      <stop class="stop1" offset="0%" stop-color="#8f66ff"></stop>
      <stop class="stop2" offset="100%" stop-color="#3d12ff"></stop>
    </linearGradient>
  </defs>
  <rect id="moins-light-backgr" width="256" height="256" fill="none" rx="70"></rect>
  <g id="moins-light-group" transform="translate(0,0) scale(1)">
    <path d="M64 128h128" stroke="#1616dd" stroke-width="5" stroke-linecap="round" stroke-linejoin="round" id="moins-light-primary"></path>
  </g>
  </symbol>
  <symbol id="organiser-un-atelier-bold" viewBox="0 0 256 256" fill="none">
    <defs>
    <linearGradient id="organiser-un-atelier-bold-gradient1">
      <stop class="stop1" offset="0%" stop-color="#8f66ff"></stop>
      <stop class="stop2" offset="100%" stop-color="#3d12ff"></stop>
    </linearGradient>
  </defs>
  <rect id="organiser-un-atelier-bold-backgr" width="256" height="256" fill="none" rx="70"></rect>
  <g id="organiser-un-atelier-bold-group" transform="translate(0,0) scale(1)">
    <path d="M45.132 81.510C68.078 63.944 98.876 53.333 127.999 53.333C159.513 53.333 192.990 65.757 216.354 85.975M93.760 146.346C103.558 141.403 114.624 138.667 128.001 138.667C142.592 138.667 154.433 141.922 164.879 147.746" stroke="#ff00ff" stroke-width="10" stroke-linecap="round" stroke-linejoin="round" id="organiser-un-atelier-bold-secondary"></path>
    <path d="M69.231 113.639C86.082 102.491 106.283 96.000 128.000 96.000C151.523 96.000 173.268 103.616 190.903 116.516M138.667 192.000C138.667 197.891 133.891 202.667 128.000 202.667C122.109 202.667 117.333 197.891 117.333 192.000C117.333 186.109 122.109 181.333 128.000 181.333C133.891 181.333 138.667 186.109 138.667 192.000Z" stroke="#1616dd" stroke-width="10" stroke-linecap="round" stroke-linejoin="round" id="organiser-un-atelier-bold-primary"></path>
  </g>
  </symbol>
  <symbol id="organiser-un-atelier-light" viewBox="0 0 256 256" fill="none">
    <defs>
    <linearGradient id="organiser-un-atelier-light-gradient1">
      <stop class="stop1" offset="0%" stop-color="#8f66ff"></stop>
      <stop class="stop2" offset="100%" stop-color="#3d12ff"></stop>
    </linearGradient>
  </defs>
  <rect id="organiser-un-atelier-light-backgr" width="256" height="256" fill="none" rx="70"></rect>
  <g id="organiser-un-atelier-light-group" transform="translate(0,0) scale(1)">
    <path d="M45.132 81.510C68.078 63.944 98.876 53.333 127.999 53.333C159.513 53.333 192.990 65.757 216.354 85.975M93.760 146.346C103.558 141.403 114.624 138.667 128.001 138.667C142.592 138.667 154.433 141.922 164.879 147.746" stroke="#ff00ff" stroke-width="5" stroke-linecap="round" stroke-linejoin="round" id="organiser-un-atelier-light-secondary"></path>
    <path d="M69.231 113.639C86.082 102.491 106.283 96.000 128.000 96.000C151.523 96.000 173.268 103.616 190.903 116.516M138.667 192.000C138.667 197.891 133.891 202.667 128.000 202.667C122.109 202.667 117.333 197.891 117.333 192.000C117.333 186.109 122.109 181.333 128.000 181.333C133.891 181.333 138.667 186.109 138.667 192.000Z" stroke="#1616dd" stroke-width="5" stroke-linecap="round" stroke-linejoin="round" id="organiser-un-atelier-light-primary"></path>
  </g>
  </symbol>
  <symbol id="parametres-bold" viewBox="0 0 256 256" fill="none">
    <defs>
    <linearGradient id="parametres-bold-gradient1">
      <stop class="stop1" offset="0%" stop-color="#8f66ff"></stop>
      <stop class="stop2" offset="100%" stop-color="#3d12ff"></stop>
    </linearGradient>
  </defs>
  <rect id="parametres-bold-backgr" width="256" height="256" fill="none" rx="70"></rect>
  <g id="parametres-bold-group" transform="translate(0,0) scale(1)">
    <path d="M106.667 32.000H149.333V56.425C154.299 57.903 159.049 59.884 163.522 62.308L180.797 45.033L210.967 75.203L193.692 92.478C196.116 96.952 198.097 101.701 199.574 106.667H224.000V149.333H199.574C198.097 154.299 196.116 159.049 193.692 163.522L210.967 180.797L180.798 210.967L163.522 193.692C159.049 196.116 154.299 198.097 149.333 199.574V224.000H106.667V199.574C101.701 198.097 96.951 196.116 92.478 193.692L75.202 210.967L45.033 180.798L62.308 163.522C59.884 159.049 57.903 154.299 56.425 149.333H32.000V106.667H56.425C57.903 101.701 59.884 96.951 62.308 92.478L45.033 75.203L75.203 45.033L92.478 62.308C96.952 59.884 101.701 57.903 106.667 56.425V32.000Z" stroke="#1616dd" stroke-width="10" stroke-linejoin="round" id="parametres-bold-primary"></path>
    <path d="M160.000 128.000C160.000 145.674 145.674 160.000 128.000 160.000C110.326 160.000 96.000 145.674 96.000 128.000C96.000 110.326 110.326 96.000 128.000 96.000C145.674 96.000 160.000 110.326 160.000 128.000Z" stroke="#ff00ff" stroke-width="10" stroke-linejoin="round" id="parametres-bold-secondary"></path>
  </g>
  </symbol>
  <symbol id="parametres-light" viewBox="0 0 256 256" fill="none">
    <defs>
    <linearGradient id="parametres-light-gradient1">
      <stop class="stop1" offset="0%" stop-color="#8f66ff"></stop>
      <stop class="stop2" offset="100%" stop-color="#3d12ff"></stop>
    </linearGradient>
  </defs>
  <rect id="parametres-light-backgr" width="256" height="256" fill="none" rx="70"></rect>
  <g id="parametres-light-group" transform="translate(0,0) scale(1)">
    <path d="M106.667 32.000H149.333V56.425C154.299 57.903 159.049 59.884 163.522 62.308L180.797 45.033L210.967 75.203L193.692 92.478C196.116 96.952 198.097 101.701 199.574 106.667H224.000V149.333H199.574C198.097 154.299 196.116 159.049 193.692 163.522L210.967 180.797L180.798 210.967L163.522 193.692C159.049 196.116 154.299 198.097 149.333 199.574V224.000H106.667V199.574C101.701 198.097 96.951 196.116 92.478 193.692L75.202 210.967L45.033 180.798L62.308 163.522C59.884 159.049 57.903 154.299 56.425 149.333H32.000V106.667H56.425C57.903 101.701 59.884 96.951 62.308 92.478L45.033 75.203L75.203 45.033L92.478 62.308C96.952 59.884 101.701 57.903 106.667 56.425V32.000Z" stroke="#1616dd" stroke-width="5" stroke-linejoin="round" id="parametres-light-primary"></path>
    <path d="M160.000 128.000C160.000 145.674 145.674 160.000 128.000 160.000C110.326 160.000 96.000 145.674 96.000 128.000C96.000 110.326 110.326 96.000 128.000 96.000C145.674 96.000 160.000 110.326 160.000 128.000Z" stroke="#ff00ff" stroke-width="5" stroke-linejoin="round" id="parametres-light-secondary"></path>
  </g>
  </symbol>
  <symbol id="pitcher-ma-formation-bold" viewBox="0 0 256 256" fill="none">
    <defs>
    <linearGradient id="pitcher-ma-formation-bold-gradient1">
      <stop class="stop1" offset="0%" stop-color="#8f66ff"></stop>
      <stop class="stop2" offset="100%" stop-color="#3d12ff"></stop>
    </linearGradient>
  </defs>
  <rect id="pitcher-ma-formation-bold-backgr" width="256" height="256" fill="none" rx="70"></rect>
  <g id="pitcher-ma-formation-bold-group" transform="translate(0,0) scale(1)">
    <path d="M74.667 191.975L128.000 131.297L181.333 191.975M162.431 77.290L185.058 54.645" stroke="#ff00ff" stroke-width="10" stroke-linecap="round" stroke-linejoin="round" id="pitcher-ma-formation-bold-secondary"></path>
    <path d="M42.667 213.325C42.667 201.534 52.218 191.975 64.000 191.975H192.000C203.782 191.975 213.333 201.534 213.333 213.325V224.000H42.667V213.325Z" stroke="#1616dd" stroke-width="10" stroke-linecap="round" stroke-linejoin="round" id="pitcher-ma-formation-bold-primary"></path>
    <path d="M117.175 122.580C142.170 147.593 182.692 147.593 207.686 122.580L162.431 77.290L117.177 32.000C92.183 57.013 92.182 97.567 117.175 122.580Z" stroke="#1616dd" stroke-width="10" stroke-linecap="round" stroke-linejoin="round" id="pitcher-ma-formation-bold-primary"></path>
  </g>
  </symbol>
  <symbol id="pitcher-ma-formation-light" viewBox="0 0 256 256" fill="none">
    <defs>
    <linearGradient id="pitcher-ma-formation-light-gradient1">
      <stop class="stop1" offset="0%" stop-color="#8f66ff"></stop>
      <stop class="stop2" offset="100%" stop-color="#3d12ff"></stop>
    </linearGradient>
  </defs>
  <rect id="pitcher-ma-formation-light-backgr" width="256" height="256" fill="none" rx="70"></rect>
  <g id="pitcher-ma-formation-light-group" transform="translate(0,0) scale(1)">
    <path d="M74.667 191.975L128.000 131.297L181.333 191.975M162.431 77.290L185.058 54.645" stroke="#ff00ff" stroke-width="5" stroke-linecap="round" stroke-linejoin="round" id="pitcher-ma-formation-light-secondary"></path>
    <path d="M42.667 213.325C42.667 201.534 52.218 191.975 64.000 191.975H192.000C203.782 191.975 213.333 201.534 213.333 213.325V224.000H42.667V213.325Z" stroke="#1616dd" stroke-width="5" stroke-linecap="round" stroke-linejoin="round" id="pitcher-ma-formation-light-primary"></path>
    <path d="M117.175 122.580C142.170 147.593 182.692 147.593 207.686 122.580L162.431 77.290L117.177 32.000C92.183 57.013 92.182 97.567 117.175 122.580Z" stroke="#1616dd" stroke-width="5" stroke-linecap="round" stroke-linejoin="round" id="pitcher-ma-formation-light-primary"></path>
  </g>
  </symbol>
  <symbol id="pitcher-mon-metier-bold" viewBox="0 0 256 256" fill="none">
    <defs>
    <linearGradient id="pitcher-mon-metier-bold-gradient1">
      <stop class="stop1" offset="0%" stop-color="#8f66ff"></stop>
      <stop class="stop2" offset="100%" stop-color="#3d12ff"></stop>
    </linearGradient>
  </defs>
  <rect id="pitcher-mon-metier-bold-backgr" width="256" height="256" fill="none" rx="70"></rect>
  <g id="pitcher-mon-metier-bold-group" transform="translate(0,0) scale(1)">
    <path d="M37.333 90.947C57.740 102.729 64.732 128.823 52.950 149.231L42.284 167.706C33.447 183.011 38.691 202.582 53.997 211.419C69.302 220.255 88.873 215.011 97.709 199.706M194.755 95.617L200.089 86.379C208.925 71.074 203.681 51.503 188.375 42.666C173.070 33.830 153.500 39.074 144.662 54.379L139.329 63.617" stroke="#ff00ff" stroke-width="10" stroke-linecap="round" stroke-linejoin="round" id="pitcher-mon-metier-bold-secondary"></path>
    <path d="M158.851 136.471L116.185 210.372L79.234 189.039L121.901 115.138M130.093 58.284L203.994 100.951L177.327 147.138L103.426 104.472L130.093 58.284Z" stroke="#1616dd" stroke-width="10" stroke-linecap="round" stroke-linejoin="round" id="pitcher-mon-metier-bold-primary"></path>
  </g>
  </symbol>
  <symbol id="pitcher-mon-metier-light" viewBox="0 0 256 256" fill="none">
    <defs>
    <linearGradient id="pitcher-mon-metier-light-gradient1">
      <stop class="stop1" offset="0%" stop-color="#8f66ff"></stop>
      <stop class="stop2" offset="100%" stop-color="#3d12ff"></stop>
    </linearGradient>
  </defs>
  <rect id="pitcher-mon-metier-light-backgr" width="256" height="256" fill="none" rx="70"></rect>
  <g id="pitcher-mon-metier-light-group" transform="translate(0,0) scale(1)">
    <path d="M37.333 90.947C57.740 102.729 64.732 128.823 52.950 149.231L42.284 167.706C33.447 183.011 38.691 202.582 53.997 211.419C69.302 220.255 88.873 215.011 97.709 199.706M194.755 95.617L200.089 86.379C208.925 71.074 203.681 51.503 188.375 42.666C173.070 33.830 153.500 39.074 144.662 54.379L139.329 63.617" stroke="#ff00ff" stroke-width="5" stroke-linecap="round" stroke-linejoin="round" id="pitcher-mon-metier-light-secondary"></path>
    <path d="M158.851 136.471L116.185 210.372L79.234 189.039L121.901 115.138M130.093 58.284L203.994 100.951L177.327 147.138L103.426 104.472L130.093 58.284Z" stroke="#1616dd" stroke-width="5" stroke-linecap="round" stroke-linejoin="round" id="pitcher-mon-metier-light-primary"></path>
  </g>
  </symbol>
  <symbol id="plus-light" viewBox="0 0 256 256" fill="none">
    <defs>
    <linearGradient id="plus-light-gradient1">
      <stop class="stop1" offset="0%" stop-color="#8f66ff"></stop>
      <stop class="stop2" offset="100%" stop-color="#3d12ff"></stop>
    </linearGradient>
  </defs>
  <rect id="plus-light-backgr" width="256" height="256" fill="none" rx="70"></rect>
  <g id="plus-light-group" transform="translate(0,0) scale(1)">
    <path d="M128.000 64.000V192.000M64.000 128.000H192.000" stroke="#1616dd" stroke-width="5" stroke-linecap="round" stroke-linejoin="round" id="plus-light-primary"></path>
  </g>
  </symbol>
  <symbol id="sengager-bold" viewBox="0 0 256 256" fill="none">
    <defs>
    <linearGradient id="sengager-bold-gradient1">
      <stop class="stop1" offset="0%" stop-color="#8f66ff"></stop>
      <stop class="stop2" offset="100%" stop-color="#3d12ff"></stop>
    </linearGradient>
  </defs>
  <rect id="sengager-bold-backgr" width="256" height="256" fill="none" rx="70"></rect>
  <g id="sengager-bold-group" transform="translate(0,0) scale(1)">
    <path d="M128.000 85.354C181.020 85.354 224.000 104.457 224.000 128.021C224.000 151.585 181.020 170.688 128.000 170.688C74.981 170.688 32.000 151.585 32.000 128.021C32.000 104.457 74.981 85.354 128.000 85.354ZM164.949 106.688C191.459 152.604 196.406 199.377 175.999 211.159C155.591 222.942 117.558 195.270 91.049 149.355C64.539 103.438 59.592 56.665 79.999 44.882C100.406 33.100 138.439 60.771 164.949 106.688ZM164.950 149.354C138.441 195.270 100.407 222.941 80.000 211.159C59.593 199.377 64.540 152.604 91.049 106.687C117.558 60.771 155.593 33.100 176.000 44.882C196.406 56.664 191.459 103.438 164.950 149.354Z" stroke="#1616dd" stroke-width="10" stroke-linecap="round" id="sengager-bold-primary"></path>
    <path d="M127.946 127.893V128.000" stroke="#ff00ff" stroke-width="10" stroke-linecap="round" id="sengager-bold-secondary"></path>
  </g>
  </symbol>
  <symbol id="sengager-light" viewBox="0 0 256 256" fill="none">
    <defs>
    <linearGradient id="sengager-light-gradient1">
      <stop class="stop1" offset="0%" stop-color="#8f66ff"></stop>
      <stop class="stop2" offset="100%" stop-color="#3d12ff"></stop>
    </linearGradient>
  </defs>
  <rect id="sengager-light-backgr" width="256" height="256" fill="none" rx="70"></rect>
  <g id="sengager-light-group" transform="translate(0,0) scale(1)">
    <path d="M128.000 85.354C181.020 85.354 224.000 104.457 224.000 128.021C224.000 151.585 181.020 170.688 128.000 170.688C74.981 170.688 32.000 151.585 32.000 128.021C32.000 104.457 74.981 85.354 128.000 85.354ZM164.949 106.688C191.459 152.604 196.406 199.377 175.999 211.159C155.591 222.942 117.558 195.270 91.049 149.355C64.539 103.438 59.592 56.665 79.999 44.882C100.406 33.100 138.439 60.771 164.949 106.688ZM164.950 149.354C138.441 195.270 100.407 222.941 80.000 211.159C59.593 199.377 64.540 152.604 91.049 106.687C117.558 60.771 155.593 33.100 176.000 44.882C196.406 56.664 191.459 103.438 164.950 149.354Z" stroke="#1616dd" stroke-width="5" stroke-linecap="round" id="sengager-light-primary"></path>
    <path d="M127.946 127.893V128.000" stroke="#ff00ff" stroke-width="5" stroke-linecap="round" id="sengager-light-secondary"></path>
  </g>
  </symbol>
</svg>
